<?xml version="1.0" standalone="no"?>
<!DOCTYPE svg PUBLIC "-//W3C//DTD SVG 20010904//EN"
 "http://www.w3.org/TR/2001/REC-SVG-20010904/DTD/svg10.dtd">
<svg version="1.0" xmlns="http://www.w3.org/2000/svg"
 width="780.000000pt" height="470.000000pt" viewBox="0 0 780.000000 470.000000"
 preserveAspectRatio="xMidYMid meet">
<metadata>
Created by potrace 1.16, written by Peter Selinger 2001-2019
</metadata>
<g transform="translate(0.000000,470.000000) scale(0.100000,-0.100000)"
fill="#000000" stroke="none">
<path d="M198 4673 l-178 -3 0 -2325 0 -2325 488 0 c5752 0 7256 1 7261 6 9 9
7 4632 -2 4641 -8 7 -7169 13 -7569 6z m7472 -2328 l0 -2225 -3775 0 -3775 0
0 2225 0 2225 3775 0 3775 0 0 -2225z"/>
<path d="M4337 3673 c-4 -4 2 -865 6 -869 2 -3 657 -6 1456 -7 l1451 -2 0 440
0 440 -1456 0 c-801 0 -1456 -1 -1457 -2z"/>
<path d="M769 3633 c0 -2 0 -526 -1 -1165 l0 -1163 1601 0 1602 0 0 1160 c-1
638 -1 1162 -1 1165 0 5 -3199 7 -3201 3z m2403 -490 c6 -7 27 -13 44 -13 18
0 36 -4 39 -10 3 -5 19 -10 34 -10 40 0 83 -24 102 -57 8 -15 25 -32 36 -38
14 -6 24 -22 28 -45 4 -19 12 -48 20 -65 7 -16 18 -60 24 -96 14 -85 15 -705
1 -714 -5 -3 -10 -17 -10 -30 0 -13 -4 -27 -10 -30 -5 -3 -10 -14 -10 -24 0
-56 -100 -163 -170 -181 -25 -7 -53 -16 -62 -21 -10 -5 -26 -9 -36 -9 -10 0
-24 -6 -30 -12 -10 -10 -187 -13 -817 -13 -630 0 -807 3 -816 13 -7 6 -23 12
-34 12 -12 0 -25 3 -29 8 -4 4 -28 14 -54 22 -29 9 -51 24 -58 38 -6 12 -21
33 -34 46 -26 29 -70 113 -70 136 0 9 -6 22 -12 29 -19 18 -19 714 0 733 6 6
12 23 12 37 0 29 63 163 85 181 8 7 15 17 15 23 0 24 44 57 76 57 18 0 36 5
39 10 3 6 16 10 29 10 12 0 26 4 32 9 16 17 84 18 861 17 595 -1 765 -4 775
-13z"/>
<path d="M4360 2303 c-1 -270 -1 -901 -1 -908 1 -7 490 -10 1446 -10 l1445 0
0 463 0 462 -1445 0 c-795 0 -1445 -3 -1445 -7z"/>
</g>
</svg>
